<svg width="20" height="20" viewBox="0 0 20 20" fill="none" xmlns="http://www.w3.org/2000/svg">
<g clip-path="url(#clip0_1719_42670)">
<path fill-rule="evenodd" clip-rule="evenodd" d="M10 -0.00195312C4.3675 -0.00195312 0 4.12555 0 9.69805C0 12.613 1.195 15.133 3.14 16.873C3.3025 17.018 3.4025 17.223 3.4075 17.443L3.4625 19.223C3.48 19.7905 4.065 20.1605 4.585 19.9305L6.57 19.0555C6.7375 18.9805 6.9275 18.968 7.105 19.0155C8.0175 19.2655 8.9875 19.4005 10 19.4005C15.6325 19.4005 20 15.273 20 9.70055C20 4.12805 15.6325 -0.00195312 10 -0.00195312Z" fill="url(#paint0_radial_1719_42670)"/>
<path fill-rule="evenodd" clip-rule="evenodd" d="M3.99544 12.5363L6.93293 7.87628C7.40043 7.13378 8.40043 6.95128 9.10293 7.47628L11.4404 9.22878C11.6554 9.38878 11.9504 9.38878 12.1629 9.22628L15.3179 6.83128C15.7379 6.51128 16.2879 7.01628 16.0079 7.46378L13.0679 12.1213C12.6004 12.8638 11.6004 13.0463 10.8979 12.5213L8.56043 10.7688C8.34543 10.6088 8.05043 10.6088 7.83793 10.7713L4.68294 13.1663C4.26294 13.4863 3.71294 12.9838 3.99544 12.5363Z" fill="white"/>
</g>
<defs>
<radialGradient id="paint0_radial_1719_42670" cx="0" cy="0" r="1" gradientUnits="userSpaceOnUse" gradientTransform="translate(3.85 19.8925) scale(21.792 21.792)">
<stop stop-color="#0099FF"/>
<stop offset="0.6098" stop-color="#A033FF"/>
<stop offset="0.9348" stop-color="#FF5280"/>
<stop offset="1" stop-color="#FF7061"/>
</radialGradient>
<clipPath id="clip0_1719_42670">
<rect width="20" height="20" fill="white"/>
</clipPath>
</defs>
</svg>
