<svg width="20" height="20" viewBox="0 0 20 20" fill="none" xmlns="http://www.w3.org/2000/svg">
<path d="M10 20C15.5228 20 20 15.5228 20 10C20 4.47715 15.5228 0 10 0C4.47715 0 0 4.47715 0 10C0 15.5228 4.47715 20 10 20Z" fill="#1DA1F2"/>
<path d="M8.16938 15.2746C12.6044 15.2746 15.0294 11.5996 15.0294 8.41461C15.0294 8.30961 15.0294 8.20461 15.0244 8.10461C15.4944 7.76461 15.9044 7.33961 16.2294 6.85461C15.7994 7.04461 15.3344 7.17461 14.8444 7.23461C15.3444 6.93461 15.7244 6.46461 15.9044 5.89961C15.4394 6.17461 14.9244 6.37461 14.3744 6.48461C13.9344 6.01461 13.3094 5.72461 12.6144 5.72461C11.2844 5.72461 10.2044 6.80461 10.2044 8.13461C10.2044 8.32461 10.2244 8.50961 10.2694 8.68461C8.26438 8.58461 6.48938 7.62461 5.29938 6.16461C5.09438 6.51961 4.97438 6.93461 4.97438 7.37461C4.97438 8.20961 5.39938 8.94961 6.04938 9.37961C5.65438 9.36961 5.28438 9.25961 4.95938 9.07961C4.95938 9.08961 4.95938 9.09961 4.95938 9.10961C4.95938 10.2796 5.78938 11.2496 6.89438 11.4746C6.69438 11.5296 6.47938 11.5596 6.25938 11.5596C6.10438 11.5596 5.95438 11.5446 5.80438 11.5146C6.10938 12.4746 6.99938 13.1696 8.05438 13.1896C7.22938 13.8346 6.18938 14.2196 5.05938 14.2196C4.86438 14.2196 4.67438 14.2096 4.48438 14.1846C5.53938 14.8746 6.80938 15.2746 8.16938 15.2746Z" fill="white"/>
</svg>
